<?xml version="1.0" encoding="UTF-8" standalone="no"?>
<!DOCTYPE svg PUBLIC "-//W3C//DTD SVG 1.1//EN"
 "http://www.w3.org/Graphics/SVG/1.1/DTD/svg11.dtd">
<!-- Generated by graphviz version 2.40.1 (20161225.0304)
 -->
<!-- Title: G Pages: 1 -->
<svg width="1989pt" height="1035pt"
 viewBox="0.00 0.00 1988.88 1035.07" xmlns="http://www.w3.org/2000/svg" xmlns:xlink="http://www.w3.org/1999/xlink">
<g id="graph0" class="graph" transform="scale(1 1) rotate(0) translate(4 1031.0658)">
<title>G</title>
<polygon fill="#ffffff" stroke="transparent" points="-4,4 -4,-1031.0658 1984.8823,-1031.0658 1984.8823,4 -4,4"/>
<g id="clust1" class="cluster">
<title>cluster_logger</title>
<polygon fill="#ffb600" stroke="#000000" points="87,-484.5584 87,-573.4701 299,-573.4701 299,-484.5584 87,-484.5584"/>
<text text-anchor="middle" x="193" y="-558.2701" font-family="Times,serif" font-size="14.00" fill="#000000">logger</text>
</g>
<g id="clust2" class="cluster">
<title>cluster_clock</title>
<polygon fill="#ffb600" stroke="#000000" points="8,-376.6468 8,-465.5584 446,-465.5584 446,-376.6468 8,-376.6468"/>
<text text-anchor="middle" x="227" y="-450.3584" font-family="Times,serif" font-size="14.00" fill="#000000">clock</text>
</g>
<g id="clust3" class="cluster">
<title>cluster_arguments</title>
<polygon fill="#3399ff" stroke="#000000" points="28,-268.7351 28,-357.6468 1917,-357.6468 1917,-268.7351 28,-268.7351"/>
<text text-anchor="middle" x="972.5" y="-342.4468" font-family="Times,serif" font-size="14.00" fill="#000000">Arguments</text>
</g>
<!-- logger_logger -->
<g id="node1" class="node">
<title>logger_logger</title>
<ellipse fill="none" stroke="#000000" cx="193" cy="-518.0143" rx="98.391" ry="25.4118"/>
<text text-anchor="middle" x="193" y="-520.8143" font-family="Times,serif" font-size="14.00" fill="#000000">logger</text>
<text text-anchor="middle" x="193" y="-506.8143" font-family="Times,serif" font-size="14.00" fill="#000000">(Psr\Log\NullLogger)</text>
</g>
<!-- clock_clock -->
<g id="node2" class="node">
<title>clock_clock</title>
<ellipse fill="none" stroke="#000000" cx="227" cy="-410.1026" rx="211.187" ry="25.4118"/>
<text text-anchor="middle" x="227" y="-412.9026" font-family="Times,serif" font-size="14.00" fill="#000000">clock</text>
<text text-anchor="middle" x="227" y="-398.9026" font-family="Times,serif" font-size="14.00" fill="#000000">(Innmind\TimeContinuum\TimeContinuum\Earth)</text>
</g>
<!-- transport -->
<g id="node3" class="node">
<title>transport</title>
<ellipse fill="none" stroke="#000000" cx="192" cy="-302.1909" rx="155.6436" ry="25.4118"/>
<text text-anchor="middle" x="192" y="-304.9909" font-family="Times,serif" font-size="14.00" fill="#000000">transport</text>
<text text-anchor="middle" x="192" y="-290.9909" font-family="Times,serif" font-size="14.00" fill="#000000">(Innmind\Socket\Internet\Transport)</text>
</g>
<!-- server -->
<g id="node4" class="node">
<title>server</title>
<ellipse fill="none" stroke="#000000" cx="484" cy="-302.1909" rx="118.523" ry="25.4118"/>
<text text-anchor="middle" x="484" y="-304.9909" font-family="Times,serif" font-size="14.00" fill="#000000">server</text>
<text text-anchor="middle" x="484" y="-290.9909" font-family="Times,serif" font-size="14.00" fill="#000000">(Innmind\Url\UrlInterface)</text>
</g>
<!-- timeout -->
<g id="node5" class="node">
<title>timeout</title>
<ellipse fill="none" stroke="#000000" cx="800" cy="-302.1909" rx="179.4758" ry="25.4118"/>
<text text-anchor="middle" x="800" y="-304.9909" font-family="Times,serif" font-size="14.00" fill="#000000">timeout</text>
<text text-anchor="middle" x="800" y="-290.9909" font-family="Times,serif" font-size="14.00" fill="#000000">(Innmind\TimeContinuum\ElapsedPeriod)</text>
</g>
<!-- protocols -->
<g id="node6" class="node">
<title>protocols</title>
<ellipse fill="none" stroke="#000000" cx="1179" cy="-302.1909" rx="182.3245" ry="25.4118"/>
<text text-anchor="middle" x="1179" y="-304.9909" font-family="Times,serif" font-size="14.00" fill="#000000">protocols</text>
<text text-anchor="middle" x="1179" y="-290.9909" font-family="Times,serif" font-size="14.00" fill="#000000">(set&lt;Innmind\AMQP\Transport\Protocol&gt;)</text>
</g>
<!-- protocol_defaults -->
<g id="node12" class="node">
<title>protocol_defaults</title>
<ellipse fill="none" stroke="#000000" cx="1149" cy="-201.2792" rx="182.3245" ry="25.4118"/>
<text text-anchor="middle" x="1149" y="-204.0792" font-family="Times,serif" font-size="14.00" fill="#000000">protocol.defaults</text>
<text text-anchor="middle" x="1149" y="-190.0792" font-family="Times,serif" font-size="14.00" fill="#000000">(set&lt;Innmind\AMQP\Transport\Protocol&gt;)</text>
</g>
<!-- protocols&#45;&gt;protocol_defaults -->
<g id="edge10" class="edge">
<title>protocols&#45;&gt;protocol_defaults</title>
<path fill="none" stroke="#000000" stroke-dasharray="1,5" d="M1171.4297,-276.7266C1167.8057,-264.5365 1163.4076,-249.7425 1159.4694,-236.4953"/>
<polygon fill="#000000" stroke="#000000" points="1162.7724,-235.3233 1156.5678,-226.7354 1156.0627,-237.3181 1162.7724,-235.3233"/>
<text text-anchor="middle" x="1194.3535" y="-247.5351" font-family="Times,serif" font-size="14.00" fill="#000000">defaults to</text>
</g>
<!-- argumentTranslators -->
<g id="node7" class="node">
<title>argumentTranslators</title>
<ellipse fill="none" stroke="#000000" cx="1644" cy="-302.1909" rx="265.4311" ry="25.4118"/>
<text text-anchor="middle" x="1644" y="-304.9909" font-family="Times,serif" font-size="14.00" fill="#000000">argumentTranslators</text>
<text text-anchor="middle" x="1644" y="-290.9909" font-family="Times,serif" font-size="14.00" fill="#000000">(set&lt;Innmind\AMQP\Transport\Protocol\ArgumentTranslator&gt;)</text>
</g>
<!-- protocol_argumentTranslator_defaults -->
<g id="node18" class="node">
<title>protocol_argumentTranslator_defaults</title>
<ellipse fill="none" stroke="#000000" cx="1644" cy="-201.2792" rx="265.4311" ry="25.4118"/>
<text text-anchor="middle" x="1644" y="-204.0792" font-family="Times,serif" font-size="14.00" fill="#000000">protocol.argumentTranslator.defaults</text>
<text text-anchor="middle" x="1644" y="-190.0792" font-family="Times,serif" font-size="14.00" fill="#000000">(set&lt;Innmind\AMQP\Transport\Protocol\ArgumentTranslator&gt;)</text>
</g>
<!-- argumentTranslators&#45;&gt;protocol_argumentTranslator_defaults -->
<g id="edge17" class="edge">
<title>argumentTranslators&#45;&gt;protocol_argumentTranslator_defaults</title>
<path fill="none" stroke="#000000" stroke-dasharray="1,5" d="M1644,-276.7266C1644,-264.656 1644,-250.0324 1644,-236.8854"/>
<polygon fill="#000000" stroke="#000000" points="1647.5001,-236.7353 1644,-226.7354 1640.5001,-236.7354 1647.5001,-236.7353"/>
<text text-anchor="middle" x="1673.3535" y="-247.5351" font-family="Times,serif" font-size="14.00" fill="#000000">defaults to</text>
</g>
<!-- client_default -->
<g id="node8" class="node">
<title>client_default</title>
<polygon fill="#00ff00" stroke="#000000" points="575.9551,-729.5595 407,-751.2773 238.0449,-729.5595 238.2026,-694.4193 575.7974,-694.4193 575.9551,-729.5595"/>
<text text-anchor="middle" x="407" y="-722.647" font-family="Times,serif" font-size="14.00" fill="#000000">client.default</text>
<text text-anchor="middle" x="407" y="-708.647" font-family="Times,serif" font-size="14.00" fill="#000000">(Innmind\AMQP\Client\Client)</text>
</g>
<!-- connection_logger -->
<g id="node9" class="node">
<title>connection_logger</title>
<ellipse fill="none" stroke="#000000" cx="424" cy="-625.926" rx="203.3613" ry="25.4118"/>
<text text-anchor="middle" x="424" y="-628.726" font-family="Times,serif" font-size="14.00" fill="#000000">connection.logger</text>
<text text-anchor="middle" x="424" y="-614.726" font-family="Times,serif" font-size="14.00" fill="#000000">(Innmind\AMQP\Transport\Connection\Logger)</text>
</g>
<!-- client_default&#45;&gt;connection_logger -->
<g id="edge1" class="edge">
<title>client_default&#45;&gt;connection_logger</title>
<path fill="none" stroke="#000000" d="M411.6453,-694.1826C413.4631,-684.1398 415.5793,-672.4484 417.5413,-661.609"/>
<polygon fill="#000000" stroke="#000000" points="421.0232,-662.0228 419.3603,-651.5593 414.1351,-660.776 421.0232,-662.0228"/>
</g>
<!-- connection_logger&#45;&gt;logger_logger -->
<g id="edge3" class="edge">
<title>connection_logger&#45;&gt;logger_logger</title>
<path fill="none" stroke="#000000" d="M363.6663,-601.5132C343.2946,-592.9769 320.5218,-583.1109 300,-573.4701 281.6965,-564.8715 261.9618,-554.8608 244.4857,-545.73"/>
<polygon fill="#000000" stroke="#000000" points="246.0528,-542.5997 235.5722,-541.0475 242.7973,-548.7967 246.0528,-542.5997"/>
</g>
<!-- connection_lazy -->
<g id="node10" class="node">
<title>connection_lazy</title>
<ellipse fill="none" stroke="#000000" cx="504" cy="-518.0143" rx="194.7568" ry="25.4118"/>
<text text-anchor="middle" x="504" y="-520.8143" font-family="Times,serif" font-size="14.00" fill="#000000">connection.lazy</text>
<text text-anchor="middle" x="504" y="-506.8143" font-family="Times,serif" font-size="14.00" fill="#000000">(Innmind\AMQP\Transport\Connection\Lazy)</text>
</g>
<!-- connection_logger&#45;&gt;connection_lazy -->
<g id="edge2" class="edge">
<title>connection_logger&#45;&gt;connection_lazy</title>
<path fill="none" stroke="#000000" d="M442.9589,-600.3524C453.7189,-585.8382 467.3187,-567.4935 478.9491,-551.8054"/>
<polygon fill="#000000" stroke="#000000" points="482.0334,-553.522 485.1772,-543.4043 476.4101,-549.3531 482.0334,-553.522"/>
</g>
<!-- connection_lazy&#45;&gt;clock_clock -->
<g id="edge8" class="edge">
<title>connection_lazy&#45;&gt;clock_clock</title>
<path fill="none" stroke="#000000" d="M441.8358,-493.7968C399.4832,-477.2974 343.2811,-455.4025 298.9838,-438.1455"/>
<polygon fill="#000000" stroke="#000000" points="300.0238,-434.7945 289.4353,-434.4257 297.4827,-441.317 300.0238,-434.7945"/>
</g>
<!-- connection_lazy&#45;&gt;transport -->
<g id="edge4" class="edge">
<title>connection_lazy&#45;&gt;transport</title>
<path fill="none" stroke="#000000" d="M495.6731,-492.2958C482.9546,-453.6929 459.1975,-384.4359 450,-376.6468 417.4741,-349.1012 397.1597,-368.7178 356,-357.6468 325.7529,-349.511 292.9545,-338.8092 264.6945,-328.9787"/>
<polygon fill="#000000" stroke="#000000" points="265.4943,-325.5503 254.8994,-325.5435 263.1776,-332.1558 265.4943,-325.5503"/>
</g>
<!-- connection_lazy&#45;&gt;server -->
<g id="edge5" class="edge">
<title>connection_lazy&#45;&gt;server</title>
<path fill="none" stroke="#000000" d="M501.6272,-492.409C498.0712,-454.0358 491.3473,-381.4764 487.3102,-337.9121"/>
<polygon fill="#000000" stroke="#000000" points="490.7776,-337.3972 486.3697,-327.7629 483.8075,-338.0432 490.7776,-337.3972"/>
</g>
<!-- connection_lazy&#45;&gt;timeout -->
<g id="edge7" class="edge">
<title>connection_lazy&#45;&gt;timeout</title>
<path fill="none" stroke="#000000" d="M538.5343,-492.8342C592.8968,-453.1967 698.3031,-376.3415 757.3256,-333.3062"/>
<polygon fill="#000000" stroke="#000000" points="759.6675,-335.9303 765.6857,-327.2106 755.5434,-330.2741 759.6675,-335.9303"/>
</g>
<!-- protocol_delegate -->
<g id="node11" class="node">
<title>protocol_delegate</title>
<ellipse fill="none" stroke="#000000" cx="1053" cy="-410.1026" rx="197.85" ry="25.4118"/>
<text text-anchor="middle" x="1053" y="-412.9026" font-family="Times,serif" font-size="14.00" fill="#000000">protocol.delegate</text>
<text text-anchor="middle" x="1053" y="-398.9026" font-family="Times,serif" font-size="14.00" fill="#000000">(Innmind\AMQP\Transport\Protocol\Delegate)</text>
</g>
<!-- connection_lazy&#45;&gt;protocol_delegate -->
<g id="edge6" class="edge">
<title>connection_lazy&#45;&gt;protocol_delegate</title>
<path fill="none" stroke="#000000" d="M612.137,-496.7588C705.0622,-478.4934 838.8269,-452.2006 934.6074,-433.3739"/>
<polygon fill="#000000" stroke="#000000" points="935.4929,-436.7669 944.63,-431.4038 934.1427,-429.8983 935.4929,-436.7669"/>
</g>
<!-- protocol_delegate&#45;&gt;protocols -->
<g id="edge9" class="edge">
<title>protocol_delegate&#45;&gt;protocols</title>
<path fill="none" stroke="#000000" d="M1082.5414,-384.8021C1100.3139,-369.581 1123.0909,-350.0738 1142.0485,-333.8377"/>
<polygon fill="#000000" stroke="#000000" points="1144.3252,-336.4961 1149.6437,-327.3329 1139.7718,-331.1794 1144.3252,-336.4961"/>
</g>
<!-- protocol_v091 -->
<g id="node16" class="node">
<title>protocol_v091</title>
<ellipse fill="none" stroke="#000000" cx="1098" cy="-113.3675" rx="218.6909" ry="25.4118"/>
<text text-anchor="middle" x="1098" y="-116.1675" font-family="Times,serif" font-size="14.00" fill="#000000">protocol.v091</text>
<text text-anchor="middle" x="1098" y="-102.1675" font-family="Times,serif" font-size="14.00" fill="#000000">(Innmind\AMQP\Transport\Protocol\v091\Protocol)</text>
</g>
<!-- protocol_defaults&#45;&gt;protocol_v091 -->
<g id="edge18" class="edge">
<title>protocol_defaults&#45;&gt;protocol_v091</title>
<path fill="none" stroke="#000000" d="M1134.2487,-175.8515C1129.1657,-167.0897 1123.3853,-157.1257 1117.9571,-147.7687"/>
<polygon fill="#000000" stroke="#000000" points="1120.9403,-145.9362 1112.8948,-139.0426 1114.8855,-149.4488 1120.9403,-145.9362"/>
</g>
<!-- client_fluent -->
<g id="node13" class="node">
<title>client_fluent</title>
<ellipse fill="none" stroke="#000000" cx="383" cy="-813.768" rx="137.6159" ry="25.4118"/>
<text text-anchor="middle" x="383" y="-816.568" font-family="Times,serif" font-size="14.00" fill="#000000">client.fluent</text>
<text text-anchor="middle" x="383" y="-802.568" font-family="Times,serif" font-size="14.00" fill="#000000">(Innmind\AMQP\Client\Fluent)</text>
</g>
<!-- client_fluent&#45;&gt;client_default -->
<g id="edge11" class="edge">
<title>client_fluent&#45;&gt;client_default</title>
<path fill="none" stroke="#000000" d="M389.5581,-788.1036C391.7392,-779.568 394.2247,-769.8415 396.6222,-760.4593"/>
<polygon fill="#000000" stroke="#000000" points="400.0857,-761.0417 399.1706,-750.4865 393.3037,-759.3086 400.0857,-761.0417"/>
</g>
<!-- client_logger -->
<g id="node14" class="node">
<title>client_logger</title>
<ellipse fill="none" stroke="#000000" cx="205" cy="-901.6797" rx="141.1895" ry="25.4118"/>
<text text-anchor="middle" x="205" y="-904.4797" font-family="Times,serif" font-size="14.00" fill="#000000">client.logger</text>
<text text-anchor="middle" x="205" y="-890.4797" font-family="Times,serif" font-size="14.00" fill="#000000">(Innmind\AMQP\Client\Logger)</text>
</g>
<!-- client_logger&#45;&gt;logger_logger -->
<g id="edge13" class="edge">
<title>client_logger&#45;&gt;logger_logger</title>
<path fill="none" stroke="#000000" d="M199.6318,-876.0322C196.4367,-858.5648 193,-834.8714 193,-813.768 193,-813.768 193,-813.768 193,-625.926 193,-601.8856 193,-574.8326 193,-553.8274"/>
<polygon fill="#000000" stroke="#000000" points="196.5001,-553.7425 193,-543.7425 189.5001,-553.7426 196.5001,-553.7425"/>
</g>
<!-- client_logger&#45;&gt;client_fluent -->
<g id="edge12" class="edge">
<title>client_logger&#45;&gt;client_fluent</title>
<path fill="none" stroke="#000000" d="M253.6393,-877.6574C275.812,-866.7066 302.225,-853.6616 325.3857,-842.2229"/>
<polygon fill="#000000" stroke="#000000" points="327.0033,-845.3276 334.4195,-837.7612 323.9035,-839.0513 327.0033,-845.3276"/>
</g>
<!-- client_signalAware -->
<g id="node15" class="node">
<title>client_signalAware</title>
<polygon fill="#00ff00" stroke="#000000" points="406.6544,-1005.3132 205,-1027.031 3.3456,-1005.3132 3.5338,-970.173 406.4662,-970.173 406.6544,-1005.3132"/>
<text text-anchor="middle" x="205" y="-998.4007" font-family="Times,serif" font-size="14.00" fill="#000000">client.signalAware</text>
<text text-anchor="middle" x="205" y="-984.4007" font-family="Times,serif" font-size="14.00" fill="#000000">(Innmind\AMQP\Client\SignalAware)</text>
</g>
<!-- client_signalAware&#45;&gt;client_logger -->
<g id="edge14" class="edge">
<title>client_signalAware&#45;&gt;client_logger</title>
<path fill="none" stroke="#000000" d="M205,-969.9363C205,-959.8935 205,-948.2021 205,-937.3627"/>
<polygon fill="#000000" stroke="#000000" points="208.5001,-937.3129 205,-927.313 201.5001,-937.313 208.5001,-937.3129"/>
</g>
<!-- protocol_argumentTranslator_delegate -->
<g id="node17" class="node">
<title>protocol_argumentTranslator_delegate</title>
<ellipse fill="none" stroke="#000000" cx="1539" cy="-25.4558" rx="280.9565" ry="25.4118"/>
<text text-anchor="middle" x="1539" y="-28.2558" font-family="Times,serif" font-size="14.00" fill="#000000">protocol.argumentTranslator.delegate</text>
<text text-anchor="middle" x="1539" y="-14.2558" font-family="Times,serif" font-size="14.00" fill="#000000">(Innmind\AMQP\Transport\Protocol\ArgumentTranslator\Delegate)</text>
</g>
<!-- protocol_v091&#45;&gt;protocol_argumentTranslator_delegate -->
<g id="edge15" class="edge">
<title>protocol_v091&#45;&gt;protocol_argumentTranslator_delegate</title>
<path fill="none" stroke="#000000" d="M1208.4294,-91.3538C1270.5538,-78.9696 1348.3564,-63.4599 1412.873,-50.5988"/>
<polygon fill="#000000" stroke="#000000" points="1413.5771,-54.0274 1422.6999,-48.6398 1412.2086,-47.1624 1413.5771,-54.0274"/>
</g>
<!-- protocol_argumentTranslator_delegate&#45;&gt;argumentTranslators -->
<g id="edge16" class="edge">
<title>protocol_argumentTranslator_delegate&#45;&gt;argumentTranslators</title>
<path fill="none" stroke="#000000" d="M1739.7539,-43.295C1841.3468,-54.4071 1946.5235,-69.9823 1962,-87.9117 2004.2925,-136.9072 1968.0114,-185.6488 1918,-226.7351 1894.9322,-245.6861 1832.447,-263.5814 1772.9648,-277.1843"/>
<polygon fill="#000000" stroke="#000000" points="1772.0515,-273.8023 1763.0659,-279.4157 1773.5908,-280.631 1772.0515,-273.8023"/>
</g>
<!-- protocol_argumentTranslator_value -->
<g id="node19" class="node">
<title>protocol_argumentTranslator_value</title>
<ellipse fill="none" stroke="#000000" cx="1644" cy="-113.3675" rx="308.8609" ry="25.4118"/>
<text text-anchor="middle" x="1644" y="-116.1675" font-family="Times,serif" font-size="14.00" fill="#000000">protocol.argumentTranslator.value</text>
<text text-anchor="middle" x="1644" y="-102.1675" font-family="Times,serif" font-size="14.00" fill="#000000">(Innmind\AMQP\Transport\Protocol\ArgumentTranslator\ValueTranslator)</text>
</g>
<!-- protocol_argumentTranslator_defaults&#45;&gt;protocol_argumentTranslator_value -->
<g id="edge19" class="edge">
<title>protocol_argumentTranslator_defaults&#45;&gt;protocol_argumentTranslator_value</title>
<path fill="none" stroke="#000000" d="M1644,-175.3783C1644,-167.1512 1644,-157.9027 1644,-149.109"/>
<polygon fill="#000000" stroke="#000000" points="1647.5001,-149.0833 1644,-139.0833 1640.5001,-149.0834 1647.5001,-149.0833"/>
</g>
</g>
</svg>
